HIERARCHY
ROOT Hips
{
	OFFSET -14.64140 90.27770 -84.91600
	CHANNELS 6 Xposition Yposition Zposition Zrotation Xrotation Yrotation
	JOINT Spine
	{
		OFFSET 0.00000 13.20850 -1.60436
		CHANNELS 3 Zrotation Xrotation Yrotation
		JOINT Spine1
		{
			OFFSET 0.00000 8.61716 0.00000
			CHANNELS 3 Zrotation Xrotation Yrotation
			JOINT Spine2
			{
				OFFSET 0.00000 8.61717 0.00000
				CHANNELS 3 Zrotation Xrotation Yrotation
				JOINT Spine3
				{
					OFFSET 0.00000 8.61717 0.00000
					CHANNELS 3 Zrotation Xrotation Yrotation
					JOINT Neck
					{
						OFFSET 0.00000 11.07920 1.10792
						CHANNELS 3 Zrotation Xrotation Yrotation
						JOINT Neck1
						{
							OFFSET 0.00000 7.08032 0.00000
							CHANNELS 3 Zrotation Xrotation Yrotation
							JOINT Head
							{
								OFFSET 0.00000 7.08031 0.00000
								CHANNELS 3 Zrotation Xrotation Yrotation
								End site
								{
									OFFSET 0.00000 0.00000 0.00000
								}
							}
						}
					}
					JOINT RightShoulder
					{
						OFFSET -0.01000 7.91373 5.19711
						CHANNELS 3 Zrotation Xrotation Yrotation
						JOINT RightArm
						{
							OFFSET -18.41580 0.00000 0.00000
							CHANNELS 3 Zrotation Xrotation Yrotation
							JOINT RightForeArm
							{
								OFFSET -29.11090 0.00000 0.00000
								CHANNELS 3 Zrotation Xrotation Yrotation
								JOINT RightHand
								{
									OFFSET -24.65040 0.00000 0.00000
									CHANNELS 3 Zrotation Xrotation Yrotation
									JOINT RightHandThumb1
									{
										OFFSET -5.35114 -0.85590 3.97906
										CHANNELS 3 Zrotation Xrotation Yrotation
										JOINT RightHandThumb2
										{
											OFFSET -4.52789 0.00000 0.00000
											CHANNELS 3 Zrotation Xrotation Yrotation
											JOINT RightHandThumb3
											{
												OFFSET -2.46976 0.00000 0.00000
												CHANNELS 3 Zrotation Xrotation Yrotation
												End site
												{
													OFFSET 0.00000 0.00000 0.00000
												}
											}
										}
									}
									JOINT RightHandIndex1
									{
										OFFSET -14.26970 0.00000 2.88139
										CHANNELS 3 Zrotation Xrotation Yrotation
										JOINT RightHandIndex2
										{
											OFFSET -5.48836 0.00000 0.00000
											CHANNELS 3 Zrotation Xrotation Yrotation
											JOINT RightHandIndex3
											{
												OFFSET -3.01859 0.00000 0.00000
												CHANNELS 3 Zrotation Xrotation Yrotation
												End site
												{
													OFFSET 0.00000 0.00000 0.00000
												}
											}
										}
									}
									JOINT RightHandMiddle1
									{
										OFFSET -14.26970 0.00000 -0.09147
										CHANNELS 3 Zrotation Xrotation Yrotation
										JOINT RightHandMiddle2
										{
											OFFSET -6.17441 0.00000 0.00000
											CHANNELS 3 Zrotation Xrotation Yrotation
											JOINT RightHandMiddle3
											{
												OFFSET -3.56743 0.00000 0.00000
												CHANNELS 3 Zrotation Xrotation Yrotation
												End site
												{
													OFFSET 0.00000 0.00000 0.00000
												}
											}
										}
									}
									JOINT RightHandRing1
									{
										OFFSET -12.69180 0.00000 -3.06433
										CHANNELS 3 Zrotation Xrotation Yrotation
										JOINT RightHandRing2
										{
											OFFSET -5.62556 0.00000 0.00000
											CHANNELS 3 Zrotation Xrotation Yrotation
											JOINT RightHandRing3
											{
												OFFSET -3.56744 0.00000 0.00000
												CHANNELS 3 Zrotation Xrotation Yrotation
												End site
												{
													OFFSET 0.00000 0.00000 0.00000
												}
											}
										}
									}
									JOINT RightHandPinky1
									{
										OFFSET -11.11390 0.00000 -6.03719
										CHANNELS 3 Zrotation Xrotation Yrotation
										JOINT RightHandPinky2
										{
											OFFSET -4.52789 0.00000 0.00000
											CHANNELS 3 Zrotation Xrotation Yrotation
											JOINT RightHandPinky3
											{
												OFFSET -2.46976 0.00000 0.00000
												CHANNELS 3 Zrotation Xrotation Yrotation
												End site
												{
													OFFSET 0.00000 0.00000 0.00000
												}
											}
										}
									}
								}
							}
						}
					}
					JOINT LeftShoulder
					{
						OFFSET 0.01000 7.91373 5.19711
						CHANNELS 3 Zrotation Xrotation Yrotation
						JOINT LeftArm
						{
							OFFSET 18.41580 0.00000 0.00000
							CHANNELS 3 Zrotation Xrotation Yrotation
							JOINT LeftForeArm
							{
								OFFSET 29.11090 0.00000 0.00000
								CHANNELS 3 Zrotation Xrotation Yrotation
								JOINT LeftHand
								{
									OFFSET 24.65040 0.00000 0.00000
									CHANNELS 3 Zrotation Xrotation Yrotation
									JOINT LeftHandThumb1
									{
										OFFSET 5.35114 -0.85590 3.97906
										CHANNELS 3 Zrotation Xrotation Yrotation
										JOINT LeftHandThumb2
										{
											OFFSET 4.52789 0.00000 0.00000
											CHANNELS 3 Zrotation Xrotation Yrotation
											JOINT LeftHandThumb3
											{
												OFFSET 2.46977 0.00000 0.00000
												CHANNELS 3 Zrotation Xrotation Yrotation
												End site
												{
													OFFSET 0.00000 0.00000 0.00000
												}
											}
										}
									}
									JOINT LeftHandIndex1
									{
										OFFSET 14.26970 0.00000 2.88139
										CHANNELS 3 Zrotation Xrotation Yrotation
										JOINT LeftHandIndex2
										{
											OFFSET 5.48836 0.00000 0.00000
											CHANNELS 3 Zrotation Xrotation Yrotation
											JOINT LeftHandIndex3
											{
												OFFSET 3.01859 0.00000 0.00000
												CHANNELS 3 Zrotation Xrotation Yrotation
												End site
												{
													OFFSET 0.00000 0.00000 0.00000
												}
											}
										}
									}
									JOINT LeftHandMiddle1
									{
										OFFSET 14.26970 0.00000 -0.09147
										CHANNELS 3 Zrotation Xrotation Yrotation
										JOINT LeftHandMiddle2
										{
											OFFSET 6.17440 0.00000 0.00000
											CHANNELS 3 Zrotation Xrotation Yrotation
											JOINT LeftHandMiddle3
											{
												OFFSET 3.56744 0.00000 0.00000
												CHANNELS 3 Zrotation Xrotation Yrotation
												End site
												{
													OFFSET 0.00000 0.00000 0.00000
												}
											}
										}
									}
									JOINT LeftHandRing1
									{
										OFFSET 12.69180 0.00000 -3.06433
										CHANNELS 3 Zrotation Xrotation Yrotation
										JOINT LeftHandRing2
										{
											OFFSET 5.62556 0.00000 0.00000
											CHANNELS 3 Zrotation Xrotation Yrotation
											JOINT LeftHandRing3
											{
												OFFSET 3.56744 0.00000 0.00000
												CHANNELS 3 Zrotation Xrotation Yrotation
												End site
												{
													OFFSET 0.00000 0.00000 0.00000
												}
											}
										}
									}
									JOINT LeftHandPinky1
									{
										OFFSET 11.11390 0.00000 -6.03719
										CHANNELS 3 Zrotation Xrotation Yrotation
										JOINT LeftHandPinky2
										{
											OFFSET 4.52789 0.00000 0.00000
											CHANNELS 3 Zrotation Xrotation Yrotation
											JOINT LeftHandPinky3
											{
												OFFSET 2.46976 0.00000 0.00000
												CHANNELS 3 Zrotation Xrotation Yrotation
												End site
												{
													OFFSET 0.00000 0.00000 0.00000
												}
											}
										}
									}
								}
							}
						}
					}
					JOINT pCube4
					{
						OFFSET 0.00000 10.91090 1.10792
						CHANNELS 3 Zrotation Xrotation Yrotation
						End site
						{
							OFFSET 0.00000 0.00000 0.00000
						}
					}
				}
			}
		}
	}
	JOINT RightUpLeg
	{
		OFFSET -9.98441 0.00000 0.00000
		CHANNELS 3 Zrotation Xrotation Yrotation
		JOINT RightLeg
		{
			OFFSET 0.00000 -42.11790 0.00000
			CHANNELS 3 Zrotation Xrotation Yrotation
			JOINT RightFoot
			{
				OFFSET 0.00000 -45.00020 -0.00001
				CHANNELS 3 Zrotation Xrotation Yrotation
				JOINT RightForeFoot
				{
					OFFSET 0.00000 -3.74820 0.00000
					CHANNELS 3 Zrotation Xrotation Yrotation
					JOINT RightToeBase
					{
						OFFSET 0.00000 0.06325 14.43120
						CHANNELS 3 Zrotation Xrotation Yrotation
						End site
						{
							OFFSET 0.00000 0.00000 0.00000
						}
					}
				}
			}
		}
	}
	JOINT LeftUpLeg
	{
		OFFSET 9.98441 0.00000 0.00000
		CHANNELS 3 Zrotation Xrotation Yrotation
		JOINT LeftLeg
		{
			OFFSET 0.00000 -42.11800 0.00000
			CHANNELS 3 Zrotation Xrotation Yrotation
			JOINT LeftFoot
			{
				OFFSET 0.00000 -45.00070 0.00000
				CHANNELS 3 Zrotation Xrotation Yrotation
				JOINT LeftForeFoot
				{
					OFFSET 0.00000 -3.74824 0.00000
					CHANNELS 3 Zrotation Xrotation Yrotation
					JOINT LeftToeBase
					{
						OFFSET 0.00000 0.06325 14.43110
						CHANNELS 3 Zrotation Xrotation Yrotation
						End site
						{
							OFFSET 0.00000 0.00000 0.00000
						}
					}
				}
			}
		}
	}
}
MOTION
Frames: 4
Frame Time: 0.050000
0.03426928311456486 0.024987835826845717 -0.002819691903416962 0.007828163453481765 0.022333647376253953 0.04048162582307152 -3.3537821984826435 1.5464567695435505 -0.7115716517270887 -1.0125665356226188 3.53545726942747 0.3543555152906295 -1.2370333772504483 -2.47108472078167 -2.0521438648895196 -1.2467344024052551 -0.08727577387417043 -0.9067211280172808 -0.895267534348117 15.720839168184677 2.0625102808284645 0.2078477198886461 1.1981476324647602 4.348558543112563 -0.44115039385568205 -13.667457556073705 0.37806112952457327 -11.735527871704612 4.03357257903402 -11.355346578206158 66.28549765112615 -11.207291650683622 46.25170796496744 24.409480103768008 -2.789875196478187 97.60420528800687 10.360549606211293 -0.3442949107050985 -0.38595296684122177 4.506076462745917 -0.15622311157565394 -1.6239775806459484 -0.01011516510503194 0.04636401373298524 -56.18929987114903 0.0009952734103520562 0.015294762772637624 -56.217484455805305 -38.7549974703349 -0.011763073280298408 0.0038233487930358382 -0.04030487718300261 0.025646981817289798 0.0023043778357863046 0.012892598776720414 -0.019842246939719636 0.03950858793250081 -36.67185285137518 -0.008224304123207285 0.01074069054226163 0.008566876106474332 0.008179643720809406 -0.01561834346660754 0.02748843851322689 0.011125539561670918 0.0005530499010112068 -19.79984377903182 -0.04070958427348865 -0.04161816742327168 -0.015307106097023414 -0.015531150893069813 0.011977168693306678 0.007536145323336757 0.03012893126237259 8.401037551979815e-05 24.04763202497457 -0.012650256991831085 0.04000579871997318 28.86955898850338 0.04679888818040832 -0.044282947245403666 28.85846863389845 0.0014266664784572895 -0.007191007308990668 14.738569480331892 3.328041527119799 9.739182782335618 -62.83143983655149 5.265729975657259 -51.19614487010945 -53.525985918982826 0.8584814406803818 -94.47701244784938 -5.881564753679399 0.4983469028556812 -0.9601271561331978 -0.4834510871561726 0.06741898832759058 -8.120386495766024 0.033825846364644994 -0.014599205746410706 44.59828899768595 -0.023270820241126984 0.02464719730327406 44.54140539494578 12.469072227556792 -0.04399565944741124 0.02412207395581628 -0.004913038066204496 -0.036907564332917184 0.03386193238078772 -0.03228316826631568 -0.02931456669142926 -0.013638286850752331 11.061559422848246 0.03545362752575013 0.0048449950438839064 -0.04445199012405409 0.048032227246303294 -0.03373780728712701 -0.018557768709492273 -0.041958824627405765 0.00012891068403677645 4.7538567451571705 0.004895478484375337 0.04773021505142377 0.03766464192829394 0.011784965683087782 0.024713595479693967 -0.01312770815684192 -0.014195672921093297 -0.009124070282719728 -5.610443098056055 0.03167379248485601 0.002065783548132767 -6.740719098723035 7.460279692916711e-05 -0.03505530407029218 -6.701132672454625 -0.009636664432549055 -0.03882148831524114 -0.013941650205808918 -0.004415766506754579 0.03445116126504605 8.041154064520734 3.5414111711084515 -19.20138326474907 0.029549480871874874 10.412769920377096 -0.00044448141229852 -5.646432124489315 -15.687987351188333 3.1576440523180653 -0.02610402729449109 -0.04260704181379894 0.013387474197191522 0.028078134840061567 4.719051103735359 -0.01125761709617589 12.446251149828843 -8.201366641217806 6.881512823150426 -0.030370181759585137 46.38854453658228 0.022486430710584787 -4.324473928556875 -14.75396580841951 -3.880973921426362 0.004601506518068536 0.034981941270299986 0.004956497283286038 0.03356600296970584 -10.777747209265574 -0.04629258497374328 
-0.004516192513251849 -0.019662336668813035 0.030128924846874003 -0.01567708890871928 -0.0014957030764239274 -0.0004991301982365825 -3.3716383155919294 1.3939294809658567 -0.7751641145835945 -1.0399247879209457 3.6056023681226383 0.36055613123742536 -1.3138539548115735 -2.426136133172829 -2.138268946999546 -1.2828963390345565 -0.11328797283678993 -0.9484415931844586 -0.947492704494393 15.738465058626153 2.3371262692009442 0.2206533404078205 1.2625791072984909 5.1389230230100384 -0.555228133277435 -13.412045616980619 0.4623192219347595 -11.680870981811669 4.000360310136061 -11.369556164097263 65.68451838429905 -10.728792824059816 45.14266524882201 20.91680490321509 -3.232755913013486 97.91765437945703 10.14338456244397 -0.3707133301882898 -0.497120511214622 4.534388729674846 -0.15712417851892738 -1.6384681842341127 -0.045356028773770436 -0.003179921281762052 -56.19252378386968 0.019576699872531526 0.008814225786033917 -56.27659237670954 -38.79889234450185 -0.04048869500345664 -0.04027354181490539 -0.04924102184794229 -0.020256233703475086 0.004829817260516407 -0.017172442184267105 0.02753455701853152 -0.01516394786331883 -36.673958230281954 0.02561920130076983 -0.01843902793878188 -0.00802488779217558 -0.017317621543814273 -0.030995015474858927 0.004402662697036848 -0.02979798704811707 -0.03886476267234807 -19.79866355402159 0.007502609806612418 0.03078337690001365 0.0413044389467927 -0.03704412094863172 0.01951119814891299 0.03561278303354787 -0.005405969305269382 0.04091497693746721 24.00750822127955 0.02968964803458082 0.010691366522245314 28.866199376305232 -0.038389996487959606 -0.03689576022483076 28.822073783823058 0.02976502806298687 -0.017030799164685848 14.791602802581483 3.3684713739909142 9.8833819788694 -62.63803258915664 5.753958410948602 -50.685512732073754 -54.21204086580866 1.3818710831831058 -93.52041286784235 -6.0707472117325105 0.015869431612407826 -0.46296503309230225 -0.43116881463108275 0.024849785065396555 -8.149357505186611 0.028757185505233436 -0.022735192852374384 44.58139374266047 0.029241398688017884 0.022744321341387153 44.56274072565049 12.494004996057312 -0.023713984225669955 0.030272832961099467 -0.041208997024236554 0.040540824708787754 0.007939088966051125 0.029885761399970494 0.03787796030600934 -0.002097259777400674 11.101929773170758 0.029111078414329115 0.03066484921473318 -0.022022177944135482 -0.020020954624292514 -0.025740639395592707 0.012741641352856629 -0.010242138638982781 0.011643061203119665 4.747259707704757 0.020315231513504995 -0.037340610873681214 -0.027078231599409183 0.012481285031800975 -0.021326027468869746 0.029734940521858072 0.025005815531077773 0.035065570251940105 -5.553017506647918 -0.03455916839278704 -0.025215637009633265 -6.736146868455625 0.007955055777387648 0.023530403892311837 -6.691957547348912 -0.0015076139359989213 -0.03223706990338349 0.043233629787450455 0.03407797824910464 0.00022857146689844087 8.029867420933627 3.4925745686756353 -19.173816882728843 -0.004729714890195134 10.345370905196392 0.056857761355677106 -5.598736209257753 -15.698149512902969 3.14317720260327 -0.01590857880949644 -0.0027113582694225 -0.004906843813567035 -0.018470591565464083 4.723736224868581 0.04170478540986914 12.428373840462724 -8.232366696918952 6.850822891870352 0.0010139567659953452 46.3577071909948 -0.045254746055855846 -4.34018543364527 -14.73826595675535 -3.8560342294291785 0.019864450124552954 -0.04811428002006528 0.009851659893517509 0.015976417791934205 -10.717327985175592 -0.021230243070169495 
-0.030999662347454035 0.028307118527373554 0.028316079054394396 0.004659665892989686 -0.04848920954725649 0.0212334313243467 -3.487719107776762 1.3140089678449955 -0.7205329909582869 -1.0177520663408737 3.500246482685463 0.4154549357905042 -1.2469054578408836 -2.4194060302009377 -2.187809364719333 -1.3326911161531472 0.006259432894080888 -0.898587334908425 -1.0046919001578338 15.702381551356826 2.6352065652079815 0.25890799799413927 1.4347612678869377 5.8422717098878385 -0.6194005056237726 -13.181199599862211 0.48099628297641783 -11.541394864901257 3.890470410945599 -11.500799678456744 65.01891883044645 -9.72424446033072 43.295247893733425 17.44442674692978 -3.592096237719032 98.17060154348576 9.944075882850354 -0.341097520565548 -0.6913220922651369 4.56716788322178 -0.14242794421977945 -1.5693425038825777 0.0007264075399876041 -0.04312390088446723 -56.18754526672139 -0.02983224569288695 -0.008962417652478398 -56.20238134678857 -38.75966534279962 -0.010467190740462349 0.018519735309344892 -0.013707343865818233 0.017440330761365187 -0.038385402508454784 0.00812321165894339 -0.023816134394883462 -0.02496190496125707 -36.66585471405115 -0.025286702887121662 0.009427297051407296 0.03327933272062136 -0.015303629835714356 0.010612495366788374 0.047178496030358875 0.0323991757766804 0.02463492054316543 -19.72124607482017 -0.039263940382782525 0.04696741531511859 0.007575758062039634 0.008918454292461674 -0.03726277906232606 0.0011389289353341658 -0.0035067742074386486 -0.0076269406736141675 24.021309823736757 0.040834647779007666 0.01332620715243029 28.860372590993794 0.010522881013935457 -0.008000897875553529 28.893569014136798 -0.012675631512554714 -0.01709408347814568 14.655867321682981 3.353497406026055 9.864888386946893 -62.58714432649455 6.429298679248839 -49.6924907017793 -56.16404895027269 2.3632756734334364 -92.40933999923696 -5.969527172796442 -0.35221775950546375 0.0708639646579413 -0.5031665635857416 0.08040493123277534 -8.089971972064312 0.04379472983118924 0.035338210506551025 44.581095431588146 -0.012338730585780831 0.002422967435126348 44.561063578730234 12.432746621658021 0.013076681402808314 -0.011638082976967664 0.024117155854919862 0.01049792991849318 0.004358304677937966 -0.023364210179675236 -0.03442180672961796 -0.020496171595167683 11.08518803207722 -0.010133343487512644 0.02075626823058118 0.013711668709062732 0.024275271015622022 0.033637319884402765 0.0018640319593347203 0.007902856613580502 0.0029040220297239915 4.7420823282663545 0.025441564881864373 0.005108209089360238 -0.015761931429194277 0.02205181530435476 0.04575909917200484 -0.04799719853453774 0.02546841439319265 0.017989583156730042 -5.6118370898212895 0.0015233805528872238 -0.021366196876192466 -6.724817282170701 0.009703486987015284 0.013047810472942416 -6.746338287824693 -0.00512183599784096 -0.014094583052644138 0.01422204539732937 0.017311061277442794 0.016352436894045246 8.021666622585114 3.457113182671194 -19.192435091991776 -0.04656031953928665 10.391867486414878 0.0056394601137147796 -5.644310790118208 -15.64347478212704 3.19254221175816 0.006611068005402446 0.03577671259638497 0.0346138679219717 -0.045663807380121345 4.732270760145173 0.003296091555258194 12.469146182596358 -8.202921400320635 6.892710675546435 -0.029621442299030222 46.372888028498124 0.004249259499839378 -4.329334269383705 -14.742888482907517 -3.7890949351343357 -0.018837572823482297 0.023714536105235686 -0.007365269802611479 -0.00807004492263511 -10.775407408900032 0.046031835297990764 
0.03117678317965544 -0.018048719615042275 0.03390391860268403 -0.025827149251909244 -0.012406866926837679 -0.049719432297543185 -3.551669053289175 1.2080656662111011 -0.7196342222427357 -1.1019369900938925 3.563747920801939 0.3366092515576897 -1.256729284609499 -2.435393506939676 -2.193606022844693 -1.2857068531118332 0.020114977366104153 -0.8813359235092523 -1.001086508348472 15.718076995928067 2.806378662115296 0.2715447999134204 1.4989018670562866 6.38653940347656 -0.6799737043287565 -12.97087646704553 0.5237793344602825 -11.382883224107395 3.8572867066164926 -11.680267687322269 64.0877838149919 -9.144174606826503 41.43588912353607 14.403279578710947 -3.9632006791708134 98.59635190956075 9.652774983972998 -0.3822100702409745 -0.7662717760577021 4.560604258645471 -0.10135847590731238 -1.5754013680199692 0.036333055425049166 -0.010478385319255405 -56.256054389373624 0.0433527522723429 -0.03877197347712132 -56.203946418619445 -38.780454688531535 0.01893264310755695 -0.010734558052358404 -4.430422649152268e-05 -0.02573942028434383 -0.003706130985684904 0.005264442323938581 -0.008354681157476892 -0.02445413649946142 -36.707841796924605 -0.04266537705203483 0.00624794276677137 0.014157982872662704 0.009649127841571292 -0.034074053112973554 0.009108424720815285 0.0467920582605257 -0.03659756748616835 -19.791086740091934 -0.006440676908627637 0.014130346588183955 -0.0029008969396646296 -0.039997313063465635 0.01753089477055332 0.0011710741780018375 -0.04548348548920146 -0.0157520190201113 24.0924769814646 0.036568515799767214 -0.0029059570161474348 28.897318196252805 0.03412623352481855 -0.020368351843288914 28.826205093539624 0.03534045918421038 0.03619879516386136 14.482286250165632 3.3067428410375292 10.024847885011784 -62.45405876876935 7.066586728501661 -48.42324544347442 -58.578825635009345 3.7239387693927477 -91.71574526846585 -5.62455438267662 -0.5805158922440418 0.417425924318011 -0.5014926581375786 0.08343718128507177 -8.08685034484532 -0.026238707200885048 -0.002986676329267574 44.571135556877266 -0.025884936764635814 0.042004021169083444 44.56874209318591 12.415499830171022 0.0069737605553072965 0.018961889503060218 0.041318273354011996 0.032919188483278086 -0.016241176300566193 0.033878703638483866 0.03638165955347067 0.03967400061298743 11.15325191828779 0.0016000868927091073 -0.03116448559788502 0.025999887627006592 -0.01117404085763603 -0.01499222638094813 -0.008104518386526526 0.03707482002757451 -0.005489499707353152 4.76977159455358 -0.034844389084276686 -0.022353605564423094 0.022921839613690157 0.04120223887175083 0.04453015923314808 -0.030735156501154604 -0.022830237896098712 0.007711154348866239 -5.57017267793205 0.04034386742408294 0.01064397268023759 -6.6870141329288275 -0.012842346786743623 0.005621497516029767 -6.758575635589992 0.006365185775268065 -0.032519445873297456 0.004589081555383728 -0.04308288487815244 -0.01768161404952668 8.066948740828064 3.474418744938628 -19.26357849503502 0.018588601172823994 10.37714098271487 0.02802604880005727 -5.599724870296548 -15.619261857475143 3.175375257982582 0.001984062943651607 0.020457421455141126 0.04747668413587368 0.03181346342261868 4.696590297551493 0.011173062859092345 12.488091374990017 -8.284454439771565 6.853882614307238 -0.013871159286788922 46.391968700194504 -0.02694170589501195 -4.348204677338174 -14.762616019434416 -3.861718240189048 -0.009735950032153086 -0.04660021463767011 -0.015191181797191271 -0.004045561945819385 -10.759253396858371 0.024768692061111763 
